HIERARCHY
ROOT Hips
{
	OFFSET 0.00000 0.00000 0.00000
	CHANNELS 6 Xposition Yposition Zposition Zrotation Yrotation Xrotation 
	JOINT LHipJoint
	{
		OFFSET 0 0 0
		CHANNELS 3 Zrotation Yrotation Xrotation
		JOINT LeftUpLeg
		{
			OFFSET 1.40001 -1.72600 0.84541
			CHANNELS 3 Zrotation Yrotation Xrotation
			JOINT LeftLeg
			{
				OFFSET 2.34760 -6.44999 0.00000
				CHANNELS 3 Zrotation Yrotation Xrotation
				JOINT LeftFoot
				{
					OFFSET 2.50650 -6.88655 0.00000
					CHANNELS 3 Zrotation Yrotation Xrotation
					JOINT LeftToeBase
					{
						OFFSET 0.12464 -0.34243 1.95563
						CHANNELS 3 Zrotation Yrotation Xrotation
						End Site
						{
							OFFSET 0.00000 -0.00000 1.00479
						}
					}
				}
			}
		}
	}
	JOINT RHipJoint
	{
		OFFSET 0 0 0
		CHANNELS 3 Zrotation Yrotation Xrotation
		JOINT RightUpLeg
		{
			OFFSET -1.40958 -1.72600 0.84541
			CHANNELS 3 Zrotation Yrotation Xrotation
			JOINT RightLeg
			{
				OFFSET -2.37905 -6.53640 0.00000
				CHANNELS 3 Zrotation Yrotation Xrotation
				JOINT RightFoot
				{
					OFFSET -2.50470 -6.88163 0.00000
					CHANNELS 3 Zrotation Yrotation Xrotation
					JOINT RightToeBase
					{
						OFFSET -0.12236 -0.33619 1.81785
						CHANNELS 3 Zrotation Yrotation Xrotation
						End Site
						{
							OFFSET -0.00000 -0.00000 0.93746
						}
					}
				}
			}
		}
	}
	JOINT LowerBack
	{
		OFFSET 0 0 0
		CHANNELS 3 Zrotation Yrotation Xrotation
		JOINT Spine
		{
			OFFSET -0.02146 1.96915 0.26424
			CHANNELS 3 Zrotation Yrotation Xrotation
			JOINT Spine1
			{
				OFFSET 0.01522 1.99484 0.02086
				CHANNELS 3 Zrotation Yrotation Xrotation
				JOINT Neck
				{
					OFFSET 0 0 0
					CHANNELS 3 Zrotation Yrotation Xrotation
					JOINT Neck1
					{
						OFFSET -0.02954 1.71757 0.03505
						CHANNELS 3 Zrotation Yrotation Xrotation
						JOINT Head
						{
							OFFSET 0.04170 1.65781 -0.11024
							CHANNELS 3 Zrotation Yrotation Xrotation
							End Site
							{
								OFFSET 0.01600 1.81465 -0.05144
							}
						}
					}
				}
				JOINT LeftShoulder
				{
					OFFSET 0 0 0
					CHANNELS 3 Zrotation Yrotation Xrotation
					JOINT LeftArm
					{
						OFFSET 2.77679 1.60868 -0.78649
						CHANNELS 3 Zrotation Yrotation Xrotation
						JOINT LeftForeArm
						{
							OFFSET 4.62672 -0.00000 -0.00000
							CHANNELS 3 Zrotation Yrotation Xrotation
							JOINT LeftHand
							{
								OFFSET 3.11018 -0.00000 -0.00000
								CHANNELS 3 Zrotation Yrotation Xrotation
								JOINT LeftFingerBase
								{
									OFFSET 0 0 0
									CHANNELS 3 Zrotation Yrotation Xrotation
									JOINT LeftHandIndex1
									{
										OFFSET 0.74383 -0.00000 -0.00000
										CHANNELS 3 Zrotation Yrotation Xrotation
										End Site
										{
											OFFSET 0.59970 -0.00000 -0.00000
										}
									}
								}
								JOINT LThumb
								{
									OFFSET 0 0 0
									CHANNELS 3 Zrotation Yrotation Xrotation
									End Site
									{
										OFFSET 0.60885 -0.00000 0.60885
									}
								}
							}
						}
					}
				}
				JOINT RightShoulder
				{
					OFFSET 0 0 0
					CHANNELS 3 Zrotation Yrotation Xrotation
					JOINT RightArm
					{
						OFFSET -2.73247 1.63658 -0.74740
						CHANNELS 3 Zrotation Yrotation Xrotation
						JOINT RightForeArm
						{
							OFFSET -4.55919 -0.00000 -0.00000
							CHANNELS 3 Zrotation Yrotation Xrotation
							JOINT RightHand
							{
								OFFSET -3.22748 -0.00000 -0.00000
								CHANNELS 3 Zrotation Yrotation Xrotation
								JOINT RightFingerBase
								{
									OFFSET 0 0 0
									CHANNELS 3 Zrotation Yrotation Xrotation
									JOINT RightHandIndex1
									{
										OFFSET -0.70088 -0.00000 -0.00000
										CHANNELS 3 Zrotation Yrotation Xrotation
										End Site
										{
											OFFSET -0.56507 -0.00000 -0.00000
										}
									}
								}
								JOINT RThumb
								{
									OFFSET 0 0 0
									CHANNELS 3 Zrotation Yrotation Xrotation
									End Site
									{
										OFFSET -0.57370 -0.00000 0.57370
									}
								}
							}
						}
					}
				}
			}
		}
	}
}
MOTION
Frames: 11
Frame Time: .0083333
-0.6873 15.9426 -43.511 0 0 0 0 0 0 -21 0 0 0 0 0 0 0 0 0 0 0 0 0 0 21 0 0 0 0 0 0 0 0 0 0 0 0 0 0 0 0 0 0 0 0 0 0 -16 0 0 21 0 0 11 0 0 0 -8 0 0 0 0 0 0 0 0 0 0 0 0 0 0 0 0 0 0 0 0 8 0 0 0 0 0 0 0 0 0 0 0 0 0 0 0 0 0
-0.6873 15.9426 -43.5110 -0.2805 2.5934 16.8094 0.0000 0.0000 0.0000 -18.6793 -3.8185 -10.3803 8.0773 16.1758 52.8408 1.4530 -4.2294 24.6356 0.6917 -5.3167 -14.8141 0.0000 0.0000 0.0000 16.9564 15.5822 -48.2745 -4.6555 -12.9850 39.3125 -0.1116 6.7887 -7.1239 -0.4071 4.0962 -11.3473 2.7774 -1.7297 -14.4806 2.6703 -2.8062 -4.2235 0.7462 -1.3792 3.6482 1.7690 -1.2994 -6.5801 -2.7960 -1.6231 11.3820 -1.2414 -0.8871 4.4468 0.0000 0.0000 0.0000 -83.9278 -0.2240 29.0336 30.8313 -41.5953 -11.9577 -0.0000 0.0000 -11.2882 25.5571 -18.2306 -8.5084 -7.1250 0.0000 -0.0000 -1.6468 9.9294 1.3388 0.0000 0.0000 0.0000 88.9835 -13.2346 -53.0001 -6.0722 10.3825 -0.5522 0.0000 0.0000 49.2617 -19.1142 -35.1258 11.2769 7.1250 -0.0000 -0.0000 18.5524 -65.7520 -9.4407
-0.6918 15.9706 -43.2810 -0.5012 2.7473 16.6514 0.0000 0.0000 0.0000 -18.2519 -4.2660 -12.0015 8.9382 16.7678 55.8760 1.6654 -4.0263 26.1040 1.5949 -7.9658 -22.6102 0.0000 0.0000 0.0000 17.6233 15.1718 -47.3056 -4.7053 -13.0441 39.5337 -0.1615 6.8723 -8.0451 -0.6483 5.1507 -14.3389 3.0631 -1.6829 -13.7761 2.7261 -2.7394 -4.5479 0.6840 -1.3569 2.9159 1.7337 -1.4163 -6.4651 -2.7059 -1.7802 11.8421 -1.2198 -0.9607 4.5658 0.0000 -0.0000 0.0000 -84.1737 0.6106 29.2305 30.0412 -40.9287 -11.4366 -0.0000 0.0000 -11.7196 25.2276 -18.3547 -8.4391 -7.1250 0.0000 -0.0000 -1.8734 9.8475 1.5262 0.0000 -0.0000 0.0000 89.1012 -13.2083 -50.3340 -6.1720 10.5486 -0.5703 0.0000 0.0000 46.7463 -19.4577 -35.4409 11.5773 7.1250 -0.0000 -0.0000 18.4785 -66.1447 -9.5685
-0.6942 16.0000 -43.0506 -0.7521 2.7421 16.6040 0.0000 0.0000 0.0000 -17.8202 -4.4343 -13.8220 9.7770 17.2826 58.7405 1.5215 -4.8603 25.4898 3.0722 -10.8110 -31.6452 0.0000 0.0000 0.0000 18.2711 14.9068 -46.3368 -4.7200 -13.0614 39.5986 -0.2276 6.6806 -9.0568 -1.2962 7.2133 -20.3489 3.3273 -1.5747 -13.9588 2.8072 -2.6497 -4.4196 0.6269 -1.3084 3.1413 1.4600 -1.4441 -6.4313 -2.4203 -1.8212 11.8679 -1.0893 -0.9757 4.5729 0.0000 -0.0000 0.0000 -84.3723 0.5504 29.5185 29.0517 -40.0666 -10.7940 -0.0000 0.0000 -11.8939 25.2760 -18.1181 -8.3536 -7.1250 0.0000 -0.0000 -1.8194 10.0954 1.4731 0.0000 -0.0000 0.0000 89.1876 -12.5423 -47.1894 -6.3056 10.7709 -0.5950 0.0000 0.0000 44.0029 -19.6496 -35.7453 11.7823 7.1250 -0.0000 -0.0000 18.5771 -66.4842 -9.7653
-0.6985 16.0291 -42.8258 -0.9597 2.7151 16.6958 0.0000 0.0000 0.0000 -17.3787 -4.6317 -15.8649 10.5920 17.7296 61.4493 1.4459 -3.4827 24.2001 2.3632 -9.5848 -27.6423 0.0000 0.0000 0.0000 18.8209 14.7317 -45.5403 -4.7395 -13.0843 39.6849 -0.3192 6.4544 -10.3587 -1.7624 8.3526 -23.7902 3.6595 -1.4148 -14.2976 2.7695 -2.5052 -4.3215 0.4135 -1.2317 3.4122 1.2544 -1.4491 -6.3024 -2.0915 -1.8442 11.8221 -0.9542 -0.9759 4.5424 0.0000 -0.0000 0.0000 -84.3942 0.2016 29.9056 27.7265 -38.8633 -9.9516 -0.0000 0.0000 -11.6874 25.3899 -17.8157 -8.2623 -7.1250 0.0000 -0.0000 -1.7164 10.4049 1.3788 0.0000 -0.0000 0.0000 89.4048 -11.7424 -45.1006 -6.4102 10.9445 -0.6147 0.0000 0.0000 42.4319 -19.3396 -35.6157 11.5514 7.1250 -0.0000 -0.0000 18.8038 -66.2734 -9.7975
-0.7024 16.0576 -42.6064 -1.2120 2.8211 16.7614 0.0000 0.0000 0.0000 -16.8124 -4.9256 -17.8801 11.3629 18.1081 63.9546 1.2529 -2.4401 22.1507 1.6963 -8.2026 -23.3310 0.0000 0.0000 0.0000 19.3939 14.5346 -44.6982 -4.7520 -13.0989 39.7400 -0.3952 6.4156 -11.3856 -1.5261 7.7999 -22.1080 3.8059 -1.2049 -14.0580 2.8342 -2.2309 -4.4425 0.4525 -1.1002 3.1567 1.3731 -1.6379 -6.6000 -2.2237 -2.0946 12.2451 -1.0355 -1.1028 4.7149 -0.0000 0.0000 0.0000 -84.6452 0.1343 30.5034 26.3750 -37.5766 -9.1154 -0.0000 0.0000 -11.0494 24.9012 -18.3817 -8.3282 -7.1250 0.0000 -0.0000 -2.0886 9.8697 1.7008 -0.0000 0.0000 0.0000 89.5650 -11.1882 -42.5202 -6.5807 11.2271 -0.6475 0.0000 0.0000 39.9004 -18.8385 -35.1113 11.1023 7.1250 -0.0000 -0.0000 18.8590 -65.6601 -9.5619
-0.7045 16.0870 -42.3879 -1.3027 2.9920 16.7770 0.0000 0.0000 0.0000 -16.4359 -5.3100 -19.7526 12.0791 18.4239 66.2393 0.9678 -2.6005 19.6937 1.3090 -7.2475 -20.4508 0.0000 0.0000 0.0000 19.7832 14.2247 -43.7973 -4.7606 -13.1091 39.7781 -0.4472 6.6915 -12.0931 -0.9524 6.2149 -17.4093 3.9641 -1.2109 -14.4861 2.8915 -2.2961 -4.2841 0.4003 -1.1243 3.5492 1.2884 -1.6808 -6.2511 -2.3825 -2.1217 12.0818 -1.0667 -1.1278 4.6045 -0.0000 0.0000 0.0000 -85.0523 0.2307 30.3183 25.2829 -36.4917 -8.4576 -0.0000 0.0000 -10.1232 24.1949 -18.5886 -8.1509 -7.1250 0.0000 -0.0000 -2.5674 9.7569 2.0973 -0.0000 0.0000 0.0000 89.5298 -10.3675 -38.2410 -6.8209 11.6240 -0.6951 0.0000 0.0000 36.2470 -19.0353 -35.3496 11.2887 7.1250 -0.0000 -0.0000 18.8780 -65.9381 -9.6923
-0.7054 16.1172 -42.1709 -1.3111 3.0457 16.8359 0.0000 0.0000 0.0000 -16.2424 -5.6976 -21.6023 12.7375 18.6853 68.3081 0.6714 -2.9641 16.8333 1.0315 -6.4603 -18.1258 0.0000 0.0000 0.0000 20.0862 13.8453 -42.9754 -4.7572 -13.1050 39.7628 -0.5012 7.1170 -12.8130 -0.6588 5.1912 -14.4546 3.9386 -1.1462 -14.5155 2.9380 -2.2063 -4.3697 0.4791 -1.0814 3.4795 1.2340 -1.7440 -6.2264 -2.5719 -2.1727 12.4431 -1.1223 -1.1671 4.7084 -0.0000 0.0000 0.0000 -85.5362 0.5001 30.2930 24.1296 -35.3011 -7.7813 -0.0000 0.0000 -9.0109 23.6133 -18.7996 -8.0191 -7.1250 0.0000 -0.0000 -2.9642 9.6202 2.4305 -0.0000 0.0000 0.0000 89.5444 -9.9185 -33.6288 -7.1782 12.2122 -0.7689 0.0000 0.0000 32.1353 -19.4030 -35.9573 11.6848 7.1250 -0.0000 -0.0000 19.1007 -66.6091 -10.1035
-0.7077 16.1479 -41.9594 -1.3042 3.0267 16.9692 0.0000 0.0000 0.0000 -16.0948 -6.1594 -23.6175 13.3635 18.9095 70.2509 0.4229 -3.2446 13.9054 0.8917 -6.0188 -16.8389 0.0000 0.0000 0.0000 20.3932 13.3793 -42.3071 -4.7589 -13.1070 39.7705 -0.5722 7.4844 -13.6768 -0.6680 5.2268 -14.5567 3.8775 -0.9934 -14.6144 2.8936 -1.9979 -4.3980 0.5006 -0.9779 3.5073 1.2667 -1.8476 -6.5576 -2.6206 -2.3042 13.0956 -1.1613 -1.2357 4.9615 0.0000 -0.0000 0.0000 -85.8426 0.6748 30.4292 23.0117 -34.1016 -7.1448 -0.0000 0.0000 -7.4950 23.5938 -18.9978 -8.0920 -7.1250 0.0000 -0.0000 -2.9943 9.4117 2.4678 0.0000 -0.0000 0.0000 89.7562 -9.4901 -28.6766 -7.6872 13.0446 -0.8802 0.0000 0.0000 27.4103 -19.4526 -36.3491 11.8233 7.1250 -0.0000 -0.0000 19.4818 -66.9861 -10.4788
-0.7117 16.1820 -41.7487 -1.2422 3.0060 17.1247 0.0000 0.0000 0.0000 -15.9886 -6.6101 -25.7084 13.8908 19.0806 71.8708 0.2541 -3.4276 11.4172 0.8831 -5.9905 -16.7570 0.0000 0.0000 0.0000 20.6660 12.8398 -41.5800 -4.7222 -13.0640 39.6085 -0.6554 7.7491 -14.6063 -0.7705 5.6051 -15.6428 3.7263 -0.9266 -14.7435 2.9140 -1.8917 -4.4932 0.6237 -0.9262 3.4843 1.0601 -1.8937 -6.4215 -2.5918 -2.3412 13.4077 -1.1225 -1.2620 5.0370 0.0000 -0.0000 0.0000 -86.2453 1.1671 30.2418 22.0764 -33.0633 -6.6275 -0.0000 0.0000 -5.6994 23.0453 -18.8581 -7.8292 -7.1250 0.0000 -0.0000 -3.3383 9.6435 2.7367 0.0000 -0.0000 0.0000 89.7298 -9.1340 -24.2379 -8.1837 13.8501 -0.9956 0.0000 0.0000 23.3945 -19.5354 -36.5368 11.9275 7.1250 -0.0000 -0.0000 19.5993 -67.1838 -10.6319
-0.7434 16.2039 -41.5819 -0.8303 3.8410 18.0171 0.0000 0.0000 0.0000 -15.6398 -8.1203 -28.8098 14.4073 19.2329 73.4445 0.1677 -3.4771 9.8211 0.6572 -5.1851 -14.4373 0.0000 0.0000 0.0000 20.4943 12.3207 -41.8993 -4.6852 -13.0203 39.4445 -0.7300 7.4931 -15.3356 -0.8138 5.7566 -16.0799 2.8882 -1.2555 -15.1673 3.0490 -2.2128 -4.8729 1.1768 -1.0877 3.3462 0.8221 -1.9260 -6.0125 -2.6210 -2.3533 13.3053 -1.0869 -1.2790 4.9385 -0.0000 -0.0000 0.0000 -86.7568 1.4435 29.8885 21.0366 -31.8711 -6.0693 -0.0000 0.0000 -3.8723 21.9125 -18.9675 -7.4489 -7.1250 0.0000 -0.0000 -4.0830 9.6936 3.3459 -0.0000 -0.0000 0.0000 89.5896 -8.5335 -20.7967 -8.6022 14.5242 -1.0982 0.0000 0.0000 20.4804 -19.7210 -36.2933 11.9795 7.1250 -0.0000 -0.0000 19.0990 -67.0141 -10.2787
